<svg width="32" height="31" viewBox="0 0 32 31" fill="none" xmlns="http://www.w3.org/2000/svg">
<g clip-path="url(#clip0_92_1967)">
<path fill-rule="evenodd" clip-rule="evenodd" d="M7 28C7 26.8954 7.89543 26 9 26C10.1046 26 11 26.8954 11 28C11 29.1046 10.1046 30 9 30C7.89543 30 7 29.1046 7 28Z" fill="#253D4E"/>
<path fill-rule="evenodd" clip-rule="evenodd" d="M18 28C18 26.8954 18.8954 26 20 26C21.1046 26 22 26.8954 22 28C22 29.1046 21.1046 30 20 30C18.8954 30 18 29.1046 18 28Z" fill="#253D4E"/>
<path fill-rule="evenodd" clip-rule="evenodd" d="M0 8C0 7.44772 0.447715 7 1 7H5C5.47663 7 5.88701 7.33639 5.98055 7.80374L6.82043 12H23C23.298 12 23.5805 12.1329 23.7705 12.3626C23.9605 12.5922 24.0381 12.8946 23.9823 13.1873L22.3809 21.5848C22.2437 22.2754 21.868 22.8958 21.3195 23.3373C20.7738 23.7766 20.0916 24.011 19.3914 24H9.68864C8.98837 24.011 8.3062 23.7766 7.76048 23.3373C7.21225 22.8959 6.83664 22.2759 6.69933 21.5857C6.69927 21.5854 6.69939 21.5859 6.69933 21.5857L5.02879 13.2392C5.02201 13.2116 5.01638 13.1835 5.01195 13.1551L4.18032 9H1C0.447715 9 0 8.55228 0 8ZM7.22073 14L8.66084 21.1952C8.70656 21.4254 8.83179 21.6322 9.01461 21.7793C9.19743 21.9265 9.42619 22.0047 9.66084 22.0002L9.68 22H19.4L19.4192 22.0002C19.6538 22.0047 19.8826 21.9265 20.0654 21.7793C20.2474 21.6328 20.3723 21.4273 20.4185 21.1984L21.7913 14H7.22073Z" fill="#253D4E"/>
</g>
<defs>
<clipPath id="clip0_92_1967">
<rect width="24" height="24" fill="white" transform="translate(0 7)"/>
</clipPath>
</defs>
</svg>