<svg width="56" height="56" viewBox="0 0 56 56" fill="none" xmlns="http://www.w3.org/2000/svg">
<path d="M19.0752 29.6187C18.1455 29.9797 17.0955 29.5859 16.6361 28.7L8.10486 12.2718C7.10954 10.325 7.86423 7.95153 9.81111 6.95621C9.93142 6.90153 10.0408 6.84684 10.1611 6.79215C12.3595 5.90621 14.7767 7.19684 15.3892 9.42809L15.4002 9.4609L20.2455 27.3C20.497 28.2515 19.9939 29.2578 19.0752 29.6187Z" fill="#F98500"/>
<path d="M18.6159 21.3391L16.1987 22.2906C15.7503 22.4547 15.2472 22.2359 15.0612 21.7875C14.8862 21.3391 15.105 20.825 15.5534 20.65L18.1456 19.6328L18.6159 21.3391Z" fill="#FA6D00"/>
<path d="M19.5565 24.7625L17.4784 25.5391C17.03 25.6922 16.5378 25.4844 16.3409 25.036C16.1659 24.5875 16.3846 24.0735 16.844 23.8985L19.0971 23.0563L19.5565 24.7625Z" fill="#FA6D00"/>
<path d="M29.3675 13.5515C28.6347 13.0484 28.2628 12.1624 28.4269 11.2765C28.8316 9.24212 27.5191 7.26243 25.4738 6.8468C25.4519 6.8468 25.4191 6.83587 25.3972 6.83587C24.555 6.69368 23.855 6.09212 23.5925 5.2718C23.5269 5.07493 23.4504 4.87805 23.3629 4.69212C22.4332 2.83274 20.18 2.07805 18.3207 3.00774C16.5597 3.88274 15.7722 5.9718 16.516 7.78743C16.8988 8.72805 17.0847 9.58118 16.4394 10.489C15.2363 12.1843 15.641 14.5359 17.3363 15.7281C17.3472 15.739 17.3691 15.7499 17.38 15.7609C18.1128 16.2749 18.4628 17.1718 18.2878 18.0468C17.8941 20.0812 19.2285 22.0609 21.2738 22.4546C23.1113 22.8046 24.916 21.7656 25.5394 20.0046C27.3988 20.9343 29.6519 20.1687 30.5816 18.3202C31.4129 16.6468 30.8988 14.6234 29.3675 13.5515Z" fill="#598C44"/>
<path d="M37.8988 16.5593C37.4066 15.8155 37.3956 14.853 37.8769 14.0984C39.0253 12.3702 38.5441 10.0296 36.816 8.88117C36.7941 8.87023 36.7722 8.84836 36.7503 8.83742C35.6785 8.15929 35.755 7.19679 35.6675 6.09211C35.5144 4.02492 33.6988 2.47179 31.6316 2.62492C29.6738 2.77804 28.1535 4.40773 28.1535 6.37648C28.1535 7.39367 28.0003 8.24679 27.0706 8.84836C25.3206 9.96398 24.8066 12.2937 25.9331 14.0437C25.9441 14.0546 25.955 14.0765 25.966 14.0874C26.4472 14.8421 26.4472 15.8046 25.9441 16.5484C24.8175 18.2874 25.3097 20.6171 27.0488 21.7546C28.6128 22.7718 30.691 22.4874 31.916 21.0874C33.2941 22.6405 35.6675 22.7937 37.2206 21.4265C38.6206 20.2015 38.905 18.1234 37.8988 16.5593Z" fill="#5F9548"/>
<path d="M43.75 27.125L33.25 23.625L39.0359 6.27813C39.7359 4.18907 41.8687 2.57032 44.0891 2.625C45.4672 2.65782 46.7578 2.92032 47.8406 3.79532C49.5906 5.19532 50.2797 7.53594 49.5687 9.65782L43.75 27.125Z" fill="#FFB531"/>
<path d="M36.75 18.375V49.875H10.5V18.375L13.125 20.125L15.75 18.375L18.375 20.125L21 18.375L23.625 20.125L26.25 18.375L28.875 20.125L31.5 18.375L34.125 20.125L36.75 18.375Z" fill="#FFB531"/>
<path d="M36.75 25.6266V49.875H10.5V44.5703C20.1359 41.3328 29.6844 35.4375 36.75 25.6266Z" fill="#FCAC1F"/>
<path d="M47.25 18.375V49.875H36.75V18.375L39.375 20.125L42 18.375L44.625 20.125L47.25 18.375Z" fill="#F98500"/>
<path d="M10.6641 53.375C14.5301 53.375 17.6641 50.241 17.6641 46.375C17.6641 42.509 14.5301 39.375 10.6641 39.375C6.79807 39.375 3.66406 42.509 3.66406 46.375C3.66406 50.241 6.79807 53.375 10.6641 53.375Z" fill="#F35244"/>
<path d="M25.375 35L26.25 36.75C25.1672 37.8328 24.7297 39.4078 25.1016 40.9062L25.375 42H21.875V40.6656C21.875 38.2703 23.2312 36.0719 25.375 35Z" fill="#5F9548"/>
<path d="M20.2457 53.375C19.141 53.375 18.1567 52.6531 17.8395 51.5922L15.8707 45.0188C15.3239 43.1922 16.527 41.125 18.5504 41.125C19.5348 41.125 20.4426 41.6391 20.9457 42.4812L22.7504 45.5V50.8703C22.7504 52.2484 21.6239 53.375 20.2457 53.375Z" fill="#FA9F0C"/>
<path d="M27.0047 53.375C28.1094 53.375 29.0937 52.6531 29.4109 51.5922L31.3797 45.0188C31.9375 43.1703 30.7125 41.125 28.7 41.125C27.7156 41.125 26.8078 41.6391 26.3047 42.4812L24.5 45.5V50.8703C24.5 52.2484 25.6266 53.375 27.0047 53.375Z" fill="#FA9F0C"/>
<path d="M23.625 41.125C25.0797 41.125 26.25 42.2953 26.25 43.75V50.75C26.25 52.2047 25.0797 53.375 23.625 53.375C22.1703 53.375 21 52.2047 21 50.75V43.75C21 42.2953 22.1703 41.125 23.625 41.125Z" fill="#FFB531"/>
<path d="M48.3876 3.11716C46.7689 1.8156 44.5485 1.42185 42.4376 2.03435C40.3814 2.63591 38.8392 4.0906 38.2048 6.00466L34.672 16.614L34.2564 16.0015L32.7907 16.975V13.4422L35.2189 11.8234L34.2454 10.3687L32.7798 11.3422V7.3281H31.0298V11.3312L29.5751 10.3578L28.6017 11.8125L31.0298 13.4312V16.964L29.5751 15.9906L28.6017 17.4453L29.947 18.3422L28.8642 19.064L26.7204 17.6422C26.622 17.5765 26.5235 17.5328 26.4142 17.5109C26.4798 17.3469 26.5673 17.1828 26.6657 17.0297C27.3439 15.9906 27.3439 14.6562 26.6767 13.6062C26.0642 12.6765 26.086 11.2875 26.7204 10.3578C26.9939 9.96404 28.1095 9.1656 28.4048 8.77185C28.9845 8.00623 29.0501 7.13123 29.1157 6.3656C29.1595 5.76404 29.2032 5.23904 29.4657 4.83435C30.3079 3.48904 32.0907 3.08435 33.436 3.92654C33.7204 4.10154 33.961 4.33123 34.1689 4.58279C34.6392 5.17341 34.6829 5.76404 34.7376 6.56248C34.7595 6.83591 34.7814 7.13123 34.8142 7.43748L36.5532 7.21873C36.5204 6.95622 36.4985 6.69373 36.4876 6.44216C36.422 5.4906 36.3454 4.51716 35.547 3.49998C33.961 1.48748 31.0517 1.14841 29.0392 2.72341C28.6235 3.05154 28.2626 3.44529 27.9782 3.89373C27.497 4.65935 27.4314 5.4906 27.3657 6.21248C27.3548 6.37654 27.3439 6.52966 27.322 6.68279C26.786 6.32185 26.1735 6.07029 25.5282 5.94998C25.0032 5.86248 24.5657 5.4906 24.4017 4.98748C24.0189 3.79529 23.1876 2.81091 22.072 2.24216C20.9782 1.66248 19.6985 1.5531 18.5173 1.93591C16.7782 2.5156 15.5095 4.14529 15.3563 6.0156C15.3017 6.72654 15.4767 7.34998 15.6517 7.90779C14.8314 6.56248 13.3985 5.70935 11.8235 5.61091L11.8563 1.7281L10.1063 1.71716L10.0845 4.24373L9.03447 1.5531L7.4376 2.22029L8.4876 4.91091L6.75947 3.07341L5.49072 4.2656L8.14854 7.10935C6.70479 8.59685 6.36572 10.8281 7.32822 12.6656L9.14385 16.1656L10.697 15.3562L8.88135 11.8562C8.10479 10.3578 8.68447 8.50935 10.1829 7.73279C11.6813 6.95622 13.5298 7.53591 14.3064 9.03435C14.4048 9.23123 14.4814 9.4281 14.547 9.64685L14.5798 9.75622L11.7579 10.8609L12.3923 12.4906L15.0392 11.4625V11.4734C14.8751 12.0969 14.8314 12.7422 14.9407 13.3875L13.0376 14.1312L13.672 15.7609L15.5532 15.0281C15.9907 15.7609 16.7454 16.439 16.7454 16.439L14.3064 17.3906L14.5907 18.1015L13.136 19.075L10.9923 17.6531C10.5876 17.3797 10.0517 17.489 9.77822 17.8937C9.67979 18.0359 9.63604 18.2109 9.63604 18.375V36.75H11.386V20.0047L12.6548 20.8468C12.9501 21.0437 13.3329 21.0437 13.6282 20.8468L15.772 19.425L17.9157 20.8468C18.211 21.0437 18.5939 21.0437 18.8892 20.8468L21.0329 19.425L23.1767 20.8468C23.472 21.0437 23.8548 21.0437 24.1501 20.8468L26.2939 19.425L28.4376 20.8468C28.7329 21.0437 29.1157 21.0437 29.411 20.8468L31.5548 19.425L33.6985 20.8468C33.9939 21.0437 34.3767 21.0437 34.672 20.8468L35.9407 20.0047V49H32.4407V50.75H47.3157C47.797 50.75 48.1907 50.3562 48.1907 49.875V18.375C48.1907 18.1125 48.0704 17.8718 47.8735 17.7078L50.4657 9.94216C51.2204 7.47029 50.411 4.74685 48.3876 3.11716ZM25.2329 14.5906C25.3095 14.7109 25.3642 14.8422 25.397 14.9844L24.7954 15.8703L23.461 12.589L24.6314 10.8609C24.3251 12.1187 24.522 13.5187 25.2329 14.5906ZM19.1298 18.5828C19.3595 17.6531 19.1735 16.6797 18.6376 15.8922C18.1235 15.1484 17.3032 14.6343 16.8876 13.825C16.6688 13.3984 16.5814 12.9062 16.636 12.425C16.7673 11.3531 17.5767 10.4562 17.697 9.38435C17.7845 8.59685 17.4673 7.83122 17.3032 7.05466C16.9204 5.33748 18.0032 3.59841 19.8517 3.51091C20.7485 3.4781 21.6017 3.86091 22.1704 4.54998C22.6735 5.17341 22.9032 5.99372 23.4064 6.6281C23.7782 7.09841 24.2814 7.43748 24.8501 7.60154C25.4079 7.7656 26.0642 7.78748 26.436 8.23591C25.7907 8.69529 25.2657 9.29685 24.9048 10.0078L23.6579 9.17654L22.6735 10.5984L21.1642 6.91248L19.5564 7.56872L21.0548 11.2656L19.3485 10.9375L18.9985 12.6437L21.8095 13.2781L23.1767 16.4937L21.4704 16.1656L21.2626 17.1937C21.2517 17.2047 19.5782 18.2547 19.1298 18.5828ZM22.1704 18.1015L23.9751 18.4734L24.0954 18.7687L23.6251 19.075L22.1704 18.1015ZM33.4579 18.6265L34.136 18.1672L33.8845 18.9109L33.4579 18.6265ZM37.6251 20.0047L38.8939 20.8468C39.1892 21.0437 39.572 21.0437 39.8673 20.8468L41.136 20.0047V44.2531L37.636 47.7531V20.0047H37.6251ZM46.3751 20.0047V47.7531L42.8751 44.2531V20.0047L44.1439 20.8468C44.4392 21.0437 44.822 21.0437 45.1173 20.8468L46.3751 20.0047ZM42.0001 45.8609L45.1392 49H38.861L42.0001 45.8609ZM48.7376 9.38435L45.7626 18.3093L44.6251 19.064L42.4814 17.6422C42.186 17.4453 41.8032 17.4453 41.5079 17.6422L39.3642 19.064C39.3642 19.064 37.1767 17.6093 37.1548 17.5984C36.8704 17.4453 36.5204 17.4672 36.2579 17.6422L36.1267 17.7297L39.8564 6.55154C40.3157 5.18435 41.4314 4.15623 42.9298 3.70779C44.4829 3.24841 46.1126 3.53279 47.2939 4.47341C48.7485 5.65466 49.3282 7.61248 48.7376 9.38435Z" fill="black"/>
<path d="M40.9653 8.77576L46.2173 7.9022L46.5043 9.6277L41.2523 10.5013L40.9653 8.77576Z" fill="black"/>
<path d="M39.2134 14.0229L44.4654 13.1494L44.7524 14.8749L39.5004 15.7484L39.2134 14.0229Z" fill="black"/>
<path d="M28.7111 40.25C27.7486 40.2391 26.8189 40.6219 26.1408 41.3109C26.1299 41.3 26.1189 41.2891 26.108 41.2672L25.9658 40.6875C25.9658 40.6766 25.9658 40.6766 25.9549 40.6656C25.6158 39.4734 26.2939 37.9641 26.8846 37.3734C27.1471 37.1109 27.2127 36.6953 27.0486 36.3672L26.1736 34.6172C25.9549 34.1797 25.4299 34.0047 25.0033 34.2234C22.5533 35.4375 21.0111 37.9422 21.0221 40.6656V41.1359C20.8143 40.9828 20.5846 40.8406 20.3549 40.7094C18.6596 39.8016 16.4611 40.3703 15.4549 41.9672C14.8752 42.8969 14.7221 44.1547 15.0502 45.2594L16.1877 49.0547C14.6783 52.0844 11.0033 53.3203 7.97363 51.8219C4.97676 50.3344 3.72988 46.7141 5.17363 43.6953C5.19551 43.6516 5.21738 43.6078 5.23926 43.5641L5.27207 46.5391L7.02207 46.5172L6.96738 42.875L10.4564 43.0391L10.5439 41.2891L7.50332 41.1469C8.41113 40.5891 9.46113 40.2828 10.5221 40.25C11.7908 40.2172 13.0377 40.5781 14.0877 41.2891L15.0611 39.8344C13.0924 38.5109 10.6314 38.15 8.36738 38.8391L8.73926 37.9641L7.13144 37.275L5.92832 40.075C5.84082 40.1406 5.74238 40.2172 5.65488 40.2938L2.98613 37.625L1.7502 38.8609L4.44082 41.5516C4.38613 41.6281 4.33145 41.7047 4.27676 41.7813L1.41113 43.0063L2.1002 44.6141L3.10645 44.1766C1.89238 48.3547 4.29863 52.7188 8.47676 53.9328C11.233 54.7313 14.208 53.9656 16.2424 51.9313C16.4502 51.7234 16.6471 51.4938 16.833 51.2641L17.008 51.8328C17.5439 53.6266 19.4252 54.6328 21.2189 54.0969C21.4705 54.0203 21.7002 53.9219 21.9299 53.7906C22.9908 54.3813 24.2814 54.3813 25.3424 53.7906C26.9611 54.7203 29.0283 54.1516 29.958 52.5328C30.0893 52.3141 30.1877 52.0734 30.2643 51.8219L32.233 45.2484C32.3533 44.8109 32.408 44.3516 32.3861 43.8922C32.3752 41.8906 30.7346 40.25 28.7111 40.25ZM25.0143 36.2359L25.2111 36.6297C24.5221 37.5813 24.0299 38.9703 24.1174 40.2828C23.8658 40.2391 23.1768 40.2063 22.7611 40.3594C22.8486 38.7078 23.6799 37.1984 25.0143 36.2359ZM18.6814 51.3406L16.7127 44.7672C16.5268 44.1438 16.6143 43.4 16.9205 42.9078C17.4236 42.0984 18.6377 41.7922 19.5127 42.2625C19.9283 42.4813 20.0924 42.6344 20.2564 42.8422C20.1799 43.1375 20.1361 43.4438 20.1361 43.75V50.75C20.1361 51.3516 20.2893 51.9422 20.5846 52.4672C19.7424 52.6422 18.9221 52.15 18.6814 51.3406ZM21.8752 50.75V43.75C21.8752 42.7875 22.6627 42 23.6252 42C24.5877 42 25.3752 42.7875 25.3752 43.75V50.75C25.3752 51.7125 24.5877 52.5 23.6252 52.5C22.6627 52.5 21.8752 51.7125 21.8752 50.75ZM30.5486 44.7672L28.5799 51.3406C28.3393 52.15 27.508 52.6422 26.6768 52.4672C26.9721 51.9422 27.1252 51.3516 27.1252 50.75V43.75C27.1252 43.4766 27.0924 43.2141 27.0268 42.9516C27.2564 42.6016 27.7814 42 28.7002 42C29.7611 42 30.6143 42.8641 30.6143 43.9141C30.6361 44.1984 30.6143 44.4938 30.5486 44.7672Z" fill="black"/>
</svg>